<svg xmlns="http://www.w3.org/2000/svg" width="1024" height="1024"><rect width="1024" height="1024" fill="#030b11"/><circle cx="1012" cy="372" r="0.5" fill="#e9edf4" opacity="0.30"/><circle cx="56" cy="995" r="0.7" fill="#e9edf4" opacity="0.18"/><circle cx="944" cy="675" r="0.5" fill="#e9edf4" opacity="0.47"/><circle cx="187" cy="356" r="0.7" fill="#c0e1ee" opacity="0.37"/><circle cx="295" cy="261" r="1" fill="#e9edf4" opacity="0.60"/><circle cx="697" cy="902" r="0.7" fill="#8dcae0" opacity="0.34"/><circle cx="365" cy="529" r="1" fill="#e9edf4" opacity="0.27"/><circle cx="370" cy="119" r="0.7" fill="#e9edf4" opacity="0.16"/><circle cx="788" cy="175" r="0.7" fill="#c0e1ee" opacity="0.36"/><circle cx="220" cy="956" r="0.7" fill="#8dcae0" opacity="0.18"/><circle cx="445" cy="235" r="0.7" fill="#8dcae0" opacity="0.31"/><circle cx="998" cy="548" r="1" fill="#e9edf4" opacity="0.25"/><circle cx="146" cy="805" r="1" fill="#c0e1ee" opacity="0.62"/><circle cx="628" cy="1000" r="1" fill="#c0e1ee" opacity="0.63"/><circle cx="755" cy="417" r="0.7" fill="#c0e1ee" opacity="0.57"/><circle cx="953" cy="921" r="0.35" fill="#c0e1ee" opacity="0.51"/><circle cx="365" cy="253" r="0.35" fill="#8dcae0" opacity="0.35"/><circle cx="424" cy="538" r="1" fill="#e9edf4" opacity="0.31"/><circle cx="159" cy="526" r="0.5" fill="#c0e1ee" opacity="0.20"/><circle cx="823" cy="940" r="0.5" fill="#e9edf4" opacity="0.60"/><circle cx="312" cy="567" r="0.35" fill="#8dcae0" opacity="0.47"/><circle cx="290" cy="760" r="0.35" fill="#c0e1ee" opacity="0.23"/><circle cx="154" cy="869" r="0.7" fill="#e9edf4" opacity="0.27"/><circle cx="954" cy="780" r="0.35" fill="#c0e1ee" opacity="0.55"/><circle cx="695" cy="998" r="0.5" fill="#8dcae0" opacity="0.22"/><circle cx="81" cy="108" r="1" fill="#e9edf4" opacity="0.63"/><circle cx="659" cy="572" r="1" fill="#8dcae0" opacity="0.29"/><circle cx="286" cy="573" r="0.5" fill="#8dcae0" opacity="0.32"/><circle cx="373" cy="365" r="0.7" fill="#8dcae0" opacity="0.36"/><circle cx="232" cy="307" r="0.5" fill="#e9edf4" opacity="0.50"/><circle cx="917" cy="208" r="0.7" fill="#c0e1ee" opacity="0.46"/><circle cx="978" cy="573" r="0.5" fill="#c0e1ee" opacity="0.34"/><circle cx="935" cy="256" r="0.7" fill="#8dcae0" opacity="0.45"/><circle cx="182" cy="953" r="1" fill="#c0e1ee" opacity="0.47"/><circle cx="92" cy="389" r="0.35" fill="#8dcae0" opacity="0.42"/><circle cx="60" cy="570" r="0.5" fill="#e9edf4" opacity="0.29"/><circle cx="63" cy="730" r="0.7" fill="#c0e1ee" opacity="0.46"/><circle cx="663" cy="786" r="0.35" fill="#8dcae0" opacity="0.31"/><circle cx="607" cy="563" r="0.7" fill="#e9edf4" opacity="0.45"/><circle cx="424" cy="640" r="0.5" fill="#c0e1ee" opacity="0.45"/><circle cx="694" cy="601" r="0.5" fill="#c0e1ee" opacity="0.21"/><circle cx="799" cy="669" r="0.5" fill="#8dcae0" opacity="0.64"/><circle cx="1003" cy="155" r="0.5" fill="#c0e1ee" opacity="0.37"/><circle cx="691" cy="321" r="0.5" fill="#e9edf4" opacity="0.61"/><circle cx="587" cy="56" r="0.35" fill="#c0e1ee" opacity="0.24"/><circle cx="137" cy="177" r="0.7" fill="#c0e1ee" opacity="0.55"/><circle cx="478" cy="970" r="1" fill="#c0e1ee" opacity="0.63"/><circle cx="299" cy="42" r="0.35" fill="#8dcae0" opacity="0.23"/><circle cx="258" cy="286" r="1" fill="#8dcae0" opacity="0.17"/><circle cx="13" cy="275" r="0.35" fill="#c0e1ee" opacity="0.31"/><circle cx="100" cy="494" r="0.5" fill="#c0e1ee" opacity="0.56"/><circle cx="409" cy="317" r="0.35" fill="#c0e1ee" opacity="0.20"/><circle cx="488" cy="52" r="0.5" fill="#e9edf4" opacity="0.48"/><circle cx="279" cy="661" r="1" fill="#8dcae0" opacity="0.28"/><circle cx="512" cy="462" r="0.35" fill="#c0e1ee" opacity="0.56"/><circle cx="864" cy="983" r="0.5" fill="#c0e1ee" opacity="0.28"/><circle cx="203" cy="304" r="0.35" fill="#c0e1ee" opacity="0.46"/><circle cx="829" cy="516" r="0.5" fill="#e9edf4" opacity="0.45"/><circle cx="984" cy="1022" r="0.35" fill="#e9edf4" opacity="0.50"/><circle cx="250" cy="994" r="0.7" fill="#8dcae0" opacity="0.33"/><circle cx="377" cy="718" r="0.7" fill="#c0e1ee" opacity="0.32"/><circle cx="584" cy="402" r="0.7" fill="#e9edf4" opacity="0.27"/><circle cx="615" cy="472" r="0.5" fill="#c0e1ee" opacity="0.44"/><circle cx="968" cy="910" r="0.7" fill="#8dcae0" opacity="0.27"/><circle cx="224" cy="786" r="0.35" fill="#c0e1ee" opacity="0.44"/><circle cx="519" cy="635" r="0.7" fill="#c0e1ee" opacity="0.44"/><circle cx="746" cy="909" r="1" fill="#8dcae0" opacity="0.36"/><circle cx="814" cy="400" r="0.5" fill="#c0e1ee" opacity="0.21"/><circle cx="321" cy="778" r="1" fill="#e9edf4" opacity="0.45"/><circle cx="781" cy="987" r="0.5" fill="#c0e1ee" opacity="0.60"/><circle cx="863" cy="175" r="0.35" fill="#c0e1ee" opacity="0.56"/><circle cx="924" cy="683" r="1" fill="#8dcae0" opacity="0.24"/><circle cx="240" cy="28" r="0.35" fill="#e9edf4" opacity="0.54"/><circle cx="51" cy="211" r="0.5" fill="#c0e1ee" opacity="0.61"/><circle cx="103" cy="418" r="0.5" fill="#8dcae0" opacity="0.22"/><circle cx="203" cy="1" r="0.7" fill="#c0e1ee" opacity="0.54"/><circle cx="481" cy="889" r="0.5" fill="#e9edf4" opacity="0.33"/><circle cx="279" cy="629" r="0.7" fill="#e9edf4" opacity="0.41"/><circle cx="447" cy="902" r="0.7" fill="#8dcae0" opacity="0.22"/><circle cx="803" cy="888" r="0.5" fill="#c0e1ee" opacity="0.55"/><circle cx="683" cy="389" r="0.35" fill="#c0e1ee" opacity="0.51"/><circle cx="490" cy="213" r="0.35" fill="#e9edf4" opacity="0.61"/><circle cx="871" cy="256" r="0.35" fill="#8dcae0" opacity="0.37"/><circle cx="656" cy="652" r="1" fill="#8dcae0" opacity="0.27"/><circle cx="105" cy="34" r="0.35" fill="#e9edf4" opacity="0.41"/><circle cx="110" cy="695" r="1" fill="#e9edf4" opacity="0.37"/><circle cx="814" cy="446" r="0.5" fill="#c0e1ee" opacity="0.25"/><circle cx="348" cy="913" r="0.5" fill="#e9edf4" opacity="0.34"/><circle cx="370" cy="788" r="0.35" fill="#8dcae0" opacity="0.23"/><circle cx="993" cy="800" r="1" fill="#8dcae0" opacity="0.60"/><circle cx="306" cy="425" r="0.7" fill="#e9edf4" opacity="0.47"/><circle cx="372" cy="845" r="0.7" fill="#c0e1ee" opacity="0.16"/><circle cx="409" cy="622" r="1" fill="#8dcae0" opacity="0.21"/><circle cx="219" cy="788" r="0.5" fill="#e9edf4" opacity="0.62"/><circle cx="130" cy="654" r="0.7" fill="#8dcae0" opacity="0.42"/><circle cx="651" cy="475" r="0.5" fill="#8dcae0" opacity="0.41"/><circle cx="993" cy="202" r="1" fill="#c0e1ee" opacity="0.30"/><circle cx="486" cy="627" r="1" fill="#e9edf4" opacity="0.16"/><circle cx="9" cy="604" r="1" fill="#c0e1ee" opacity="0.23"/><circle cx="861" cy="550" r="1" fill="#8dcae0" opacity="0.51"/><circle cx="922" cy="764" r="0.35" fill="#c0e1ee" opacity="0.59"/><circle cx="658" cy="491" r="0.5" fill="#8dcae0" opacity="0.38"/><circle cx="708" cy="963" r="1" fill="#e9edf4" opacity="0.17"/><circle cx="6" cy="135" r="0.5" fill="#c0e1ee" opacity="0.41"/><circle cx="389" cy="68" r="0.7" fill="#c0e1ee" opacity="0.26"/><circle cx="804" cy="451" r="1" fill="#c0e1ee" opacity="0.64"/><circle cx="433" cy="848" r="0.7" fill="#c0e1ee" opacity="0.38"/><circle cx="689" cy="73" r="0.7" fill="#c0e1ee" opacity="0.21"/><circle cx="752" cy="483" r="1" fill="#c0e1ee" opacity="0.26"/><circle cx="819" cy="108" r="0.7" fill="#c0e1ee" opacity="0.21"/><circle cx="842" cy="630" r="0.35" fill="#8dcae0" opacity="0.60"/><circle cx="372" cy="175" r="0.35" fill="#c0e1ee" opacity="0.55"/><circle cx="185" cy="852" r="0.5" fill="#e9edf4" opacity="0.36"/><circle cx="855" cy="1009" r="0.35" fill="#8dcae0" opacity="0.64"/><circle cx="474" cy="115" r="1" fill="#c0e1ee" opacity="0.61"/><circle cx="657" cy="846" r="0.7" fill="#c0e1ee" opacity="0.52"/><circle cx="376" cy="288" r="0.5" fill="#c0e1ee" opacity="0.18"/><circle cx="500" cy="553" r="1" fill="#8dcae0" opacity="0.58"/><circle cx="32" cy="662" r="0.35" fill="#c0e1ee" opacity="0.35"/><circle cx="436" cy="780" r="0.7" fill="#e9edf4" opacity="0.42"/><circle cx="867" cy="967" r="0.5" fill="#c0e1ee" opacity="0.46"/><circle cx="377" cy="600" r="0.7" fill="#e9edf4" opacity="0.42"/><circle cx="500" cy="951" r="0.7" fill="#e9edf4" opacity="0.18"/><circle cx="22" cy="99" r="0.5" fill="#e9edf4" opacity="0.22"/><circle cx="34" cy="530" r="0.35" fill="#8dcae0" opacity="0.29"/><circle cx="956" cy="958" r="1" fill="#c0e1ee" opacity="0.37"/><circle cx="363" cy="556" r="0.7" fill="#c0e1ee" opacity="0.56"/><circle cx="651" cy="707" r="0.35" fill="#c0e1ee" opacity="0.64"/><circle cx="892" cy="149" r="0.7" fill="#c0e1ee" opacity="0.48"/><circle cx="916" cy="857" r="1" fill="#8dcae0" opacity="0.27"/><circle cx="652" cy="360" r="0.7" fill="#e9edf4" opacity="0.63"/><circle cx="127" cy="401" r="0.35" fill="#c0e1ee" opacity="0.18"/><circle cx="306" cy="495" r="1" fill="#e9edf4" opacity="0.55"/><circle cx="884" cy="23" r="0.35" fill="#c0e1ee" opacity="0.37"/><circle cx="853" cy="646" r="0.7" fill="#e9edf4" opacity="0.17"/><circle cx="117" cy="263" r="0.5" fill="#e9edf4" opacity="0.38"/><circle cx="147" cy="158" r="1" fill="#e9edf4" opacity="0.47"/><circle cx="163" cy="143" r="1" fill="#c0e1ee" opacity="0.20"/><circle cx="559" cy="971" r="0.7" fill="#c0e1ee" opacity="0.21"/><circle cx="246" cy="142" r="0.35" fill="#e9edf4" opacity="0.44"/><circle cx="174" cy="160" r="1" fill="#8dcae0" opacity="0.44"/><circle cx="819" cy="778" r="0.7" fill="#c0e1ee" opacity="0.38"/><circle cx="757" cy="786" r="1" fill="#8dcae0" opacity="0.19"/><circle cx="978" cy="989" r="0.7" fill="#8dcae0" opacity="0.28"/><circle cx="474" cy="337" r="0.7" fill="#e9edf4" opacity="0.22"/><circle cx="660" cy="195" r="0.5" fill="#e9edf4" opacity="0.57"/><circle cx="477" cy="227" r="0.35" fill="#8dcae0" opacity="0.57"/><circle cx="782" cy="191" r="0.35" fill="#8dcae0" opacity="0.30"/><circle cx="706" cy="80" r="0.35" fill="#e9edf4" opacity="0.53"/><circle cx="518" cy="647" r="0.5" fill="#8dcae0" opacity="0.59"/><circle cx="277" cy="513" r="0.35" fill="#8dcae0" opacity="0.23"/><circle cx="936" cy="255" r="0.5" fill="#e9edf4" opacity="0.15"/><circle cx="286" cy="188" r="0.5" fill="#e9edf4" opacity="0.15"/><circle cx="1000" cy="682" r="1" fill="#c0e1ee" opacity="0.31"/><circle cx="108" cy="566" r="0.5" fill="#8dcae0" opacity="0.37"/><circle cx="314" cy="1018" r="0.5" fill="#e9edf4" opacity="0.51"/><circle cx="388" cy="901" r="0.35" fill="#e9edf4" opacity="0.43"/><circle cx="164" cy="35" r="0.35" fill="#8dcae0" opacity="0.59"/><circle cx="319" cy="972" r="0.7" fill="#c0e1ee" opacity="0.20"/><circle cx="999" cy="161" r="1" fill="#e9edf4" opacity="0.59"/><circle cx="392" cy="9" r="0.7" fill="#8dcae0" opacity="0.57"/><circle cx="187" cy="593" r="0.7" fill="#8dcae0" opacity="0.60"/><circle cx="317" cy="444" r="0.35" fill="#8dcae0" opacity="0.28"/><circle cx="297" cy="319" r="0.5" fill="#e9edf4" opacity="0.44"/><circle cx="1019" cy="811" r="0.7" fill="#e9edf4" opacity="0.57"/><circle cx="636" cy="989" r="0.7" fill="#8dcae0" opacity="0.26"/><circle cx="947" cy="740" r="0.35" fill="#e9edf4" opacity="0.37"/><circle cx="816" cy="619" r="0.35" fill="#e9edf4" opacity="0.47"/><circle cx="641" cy="183" r="0.7" fill="#e9edf4" opacity="0.64"/><circle cx="485" cy="785" r="1" fill="#e9edf4" opacity="0.31"/><circle cx="325" cy="210" r="0.35" fill="#8dcae0" opacity="0.37"/><circle cx="1002" cy="871" r="0.5" fill="#8dcae0" opacity="0.42"/><circle cx="389" cy="131" r="0.5" fill="#8dcae0" opacity="0.64"/><circle cx="613" cy="905" r="0.5" fill="#8dcae0" opacity="0.58"/><circle cx="65" cy="914" r="1" fill="#8dcae0" opacity="0.21"/><circle cx="973" cy="419" r="0.7" fill="#c0e1ee" opacity="0.20"/><circle cx="810" cy="125" r="0.5" fill="#8dcae0" opacity="0.27"/><circle cx="756" cy="567" r="0.35" fill="#e9edf4" opacity="0.61"/><circle cx="360" cy="305" r="0.5" fill="#8dcae0" opacity="0.46"/><circle cx="349" cy="663" r="0.7" fill="#8dcae0" opacity="0.30"/><circle cx="255" cy="305" r="0.35" fill="#c0e1ee" opacity="0.45"/><circle cx="126" cy="30" r="0.35" fill="#e9edf4" opacity="0.41"/><circle cx="300" cy="390" r="0.7" fill="#e9edf4" opacity="0.48"/><circle cx="786" cy="762" r="0.7" fill="#8dcae0" opacity="0.25"/><circle cx="428" cy="364" r="0.5" fill="#c0e1ee" opacity="0.27"/><circle cx="208" cy="63" r="0.5" fill="#8dcae0" opacity="0.49"/><circle cx="165" cy="268" r="0.5" fill="#c0e1ee" opacity="0.55"/><circle cx="657" cy="571" r="1" fill="#e9edf4" opacity="0.31"/><circle cx="396" cy="31" r="0.7" fill="#e9edf4" opacity="0.61"/><circle cx="1018" cy="519" r="0.35" fill="#8dcae0" opacity="0.51"/><circle cx="818" cy="592" r="0.7" fill="#8dcae0" opacity="0.53"/><circle cx="671" cy="267" r="0.5" fill="#c0e1ee" opacity="0.26"/><circle cx="155" cy="552" r="1" fill="#8dcae0" opacity="0.47"/><circle cx="3" cy="828" r="1" fill="#c0e1ee" opacity="0.47"/><circle cx="181" cy="28" r="0.5" fill="#8dcae0" opacity="0.19"/><circle cx="809" cy="1" r="0.7" fill="#8dcae0" opacity="0.26"/><circle cx="44" cy="415" r="0.5" fill="#8dcae0" opacity="0.24"/><circle cx="211" cy="547" r="0.5" fill="#e9edf4" opacity="0.47"/><circle cx="123" cy="50" r="1" fill="#c0e1ee" opacity="0.29"/><circle cx="997" cy="280" r="0.7" fill="#c0e1ee" opacity="0.64"/><circle cx="328" cy="644" r="0.5" fill="#8dcae0" opacity="0.38"/><circle cx="278" cy="715" r="0.7" fill="#c0e1ee" opacity="0.48"/><circle cx="663" cy="495" r="1" fill="#8dcae0" opacity="0.54"/><circle cx="660" cy="116" r="0.5" fill="#c0e1ee" opacity="0.37"/><circle cx="675" cy="836" r="0.5" fill="#e9edf4" opacity="0.37"/><circle cx="796" cy="36" r="0.7" fill="#c0e1ee" opacity="0.17"/><circle cx="926" cy="583" r="1" fill="#e9edf4" opacity="0.27"/><circle cx="179" cy="339" r="0.35" fill="#8dcae0" opacity="0.38"/><circle cx="1" cy="791" r="0.5" fill="#e9edf4" opacity="0.45"/><circle cx="328" cy="240" r="1" fill="#8dcae0" opacity="0.18"/><circle cx="288" cy="513" r="1" fill="#e9edf4" opacity="0.41"/><circle cx="395" cy="418" r="1" fill="#e9edf4" opacity="0.62"/><circle cx="561" cy="979" r="0.35" fill="#e9edf4" opacity="0.44"/><circle cx="564" cy="591" r="1" fill="#c0e1ee" opacity="0.58"/><circle cx="1004" cy="183" r="0.5" fill="#8dcae0" opacity="0.50"/><circle cx="442" cy="418" r="0.5" fill="#8dcae0" opacity="0.62"/><circle cx="37" cy="1021" r="0.35" fill="#8dcae0" opacity="0.55"/><circle cx="664" cy="574" r="0.5" fill="#e9edf4" opacity="0.34"/><circle cx="1000" cy="32" r="0.35" fill="#8dcae0" opacity="0.23"/><circle cx="840" cy="964" r="0.7" fill="#8dcae0" opacity="0.22"/><circle cx="355" cy="303" r="1" fill="#e9edf4" opacity="0.20"/><circle cx="254" cy="217" r="1" fill="#8dcae0" opacity="0.39"/><circle cx="594" cy="109" r="0.7" fill="#e9edf4" opacity="0.56"/><circle cx="896" cy="797" r="1" fill="#e9edf4" opacity="0.46"/><circle cx="974" cy="1000" r="1" fill="#c0e1ee" opacity="0.19"/><circle cx="41" cy="16" r="1" fill="#c0e1ee" opacity="0.54"/><circle cx="762" cy="470" r="1" fill="#8dcae0" opacity="0.50"/><circle cx="295" cy="981" r="0.5" fill="#c0e1ee" opacity="0.46"/><circle cx="312" cy="339" r="0.7" fill="#8dcae0" opacity="0.51"/><circle cx="88" cy="475" r="0.35" fill="#c0e1ee" opacity="0.22"/><circle cx="779" cy="246" r="0.35" fill="#8dcae0" opacity="0.35"/><circle cx="297" cy="58" r="1" fill="#8dcae0" opacity="0.20"/><circle cx="917" cy="545" r="1" fill="#c0e1ee" opacity="0.55"/><circle cx="715" cy="775" r="0.7" fill="#e9edf4" opacity="0.49"/><circle cx="456" cy="236" r="0.7" fill="#8dcae0" opacity="0.23"/><circle cx="469" cy="915" r="0.5" fill="#8dcae0" opacity="0.58"/><circle cx="867" cy="1018" r="1" fill="#e9edf4" opacity="0.61"/><circle cx="1021" cy="971" r="0.35" fill="#c0e1ee" opacity="0.27"/><circle cx="759" cy="581" r="1" fill="#e9edf4" opacity="0.28"/><circle cx="783" cy="68" r="0.5" fill="#e9edf4" opacity="0.53"/><circle cx="96" cy="112" r="0.7" fill="#e9edf4" opacity="0.50"/><circle cx="978" cy="507" r="0.35" fill="#8dcae0" opacity="0.48"/><circle cx="58" cy="1013" r="0.5" fill="#c0e1ee" opacity="0.65"/><circle cx="53" cy="643" r="1" fill="#e9edf4" opacity="0.54"/><circle cx="818" cy="483" r="0.7" fill="#c0e1ee" opacity="0.26"/><circle cx="831" cy="938" r="0.7" fill="#e9edf4" opacity="0.65"/><circle cx="423" cy="632" r="1" fill="#e9edf4" opacity="0.38"/><circle cx="389" cy="156" r="0.35" fill="#c0e1ee" opacity="0.19"/><circle cx="377" cy="63" r="0.5" fill="#8dcae0" opacity="0.40"/><circle cx="684" cy="528" r="1" fill="#c0e1ee" opacity="0.47"/><circle cx="948" cy="141" r="0.5" fill="#8dcae0" opacity="0.37"/><circle cx="602" cy="325" r="1" fill="#8dcae0" opacity="0.39"/><circle cx="713" cy="295" r="1" fill="#8dcae0" opacity="0.48"/><circle cx="418" cy="836" r="0.5" fill="#8dcae0" opacity="0.28"/><circle cx="360" cy="631" r="0.7" fill="#c0e1ee" opacity="0.21"/><circle cx="58" cy="441" r="1" fill="#c0e1ee" opacity="0.27"/><circle cx="94" cy="265" r="0.35" fill="#8dcae0" opacity="0.18"/><circle cx="941" cy="557" r="0.5" fill="#e9edf4" opacity="0.57"/><circle cx="47" cy="809" r="0.5" fill="#c0e1ee" opacity="0.58"/><circle cx="276" cy="215" r="0.35" fill="#e9edf4" opacity="0.48"/><circle cx="542" cy="674" r="0.7" fill="#c0e1ee" opacity="0.61"/><circle cx="331" cy="146" r="0.35" fill="#c0e1ee" opacity="0.20"/><circle cx="440" cy="106" r="0.5" fill="#c0e1ee" opacity="0.41"/><circle cx="867" cy="1018" r="0.7" fill="#c0e1ee" opacity="0.58"/><circle cx="53" cy="9" r="0.35" fill="#c0e1ee" opacity="0.18"/><circle cx="28" cy="887" r="0.7" fill="#c0e1ee" opacity="0.36"/><circle cx="35" cy="716" r="0.35" fill="#c0e1ee" opacity="0.54"/><circle cx="860" cy="668" r="0.7" fill="#c0e1ee" opacity="0.35"/><circle cx="548" cy="869" r="1" fill="#e9edf4" opacity="0.37"/><circle cx="504" cy="293" r="0.35" fill="#e9edf4" opacity="0.20"/><circle cx="703" cy="497" r="0.5" fill="#8dcae0" opacity="0.52"/><circle cx="4" cy="377" r="0.7" fill="#c0e1ee" opacity="0.41"/><circle cx="136" cy="120" r="0.5" fill="#e9edf4" opacity="0.65"/><circle cx="236" cy="127" r="1" fill="#c0e1ee" opacity="0.19"/><circle cx="729" cy="270" r="1" fill="#e9edf4" opacity="0.65"/><circle cx="257" cy="28" r="0.5" fill="#8dcae0" opacity="0.64"/><circle cx="386" cy="592" r="0.7" fill="#8dcae0" opacity="0.26"/><circle cx="469" cy="560" r="1" fill="#c0e1ee" opacity="0.50"/><circle cx="3" cy="537" r="0.5" fill="#8dcae0" opacity="0.62"/><circle cx="263" cy="469" r="1" fill="#e9edf4" opacity="0.20"/><circle cx="688" cy="19" r="0.5" fill="#8dcae0" opacity="0.19"/><circle cx="897" cy="875" r="1" fill="#c0e1ee" opacity="0.25"/><circle cx="447" cy="274" r="0.35" fill="#8dcae0" opacity="0.33"/><circle cx="949" cy="968" r="0.7" fill="#8dcae0" opacity="0.50"/><circle cx="589" cy="253" r="0.7" fill="#c0e1ee" opacity="0.43"/><circle cx="268" cy="111" r="1" fill="#e9edf4" opacity="0.44"/><circle cx="256" cy="307" r="0.5" fill="#e9edf4" opacity="0.16"/><circle cx="582" cy="134" r="0.5" fill="#8dcae0" opacity="0.31"/><circle cx="290" cy="541" r="1" fill="#c0e1ee" opacity="0.61"/><circle cx="294" cy="633" r="0.35" fill="#e9edf4" opacity="0.23"/><circle cx="456" cy="31" r="0.5" fill="#c0e1ee" opacity="0.41"/><circle cx="848" cy="144" r="1" fill="#c0e1ee" opacity="0.52"/><circle cx="604" cy="985" r="0.5" fill="#c0e1ee" opacity="0.28"/><circle cx="562" cy="465" r="0.5" fill="#c0e1ee" opacity="0.49"/><circle cx="16" cy="165" r="1" fill="#c0e1ee" opacity="0.40"/><circle cx="989" cy="737" r="0.35" fill="#e9edf4" opacity="0.27"/><circle cx="1005" cy="311" r="0.5" fill="#e9edf4" opacity="0.29"/><circle cx="899" cy="968" r="0.7" fill="#e9edf4" opacity="0.15"/><circle cx="97" cy="42" r="0.5" fill="#8dcae0" opacity="0.18"/><circle cx="259" cy="62" r="1" fill="#c0e1ee" opacity="0.44"/><circle cx="789" cy="764" r="1" fill="#c0e1ee" opacity="0.40"/><circle cx="468" cy="454" r="0.5" fill="#e9edf4" opacity="0.15"/><circle cx="221" cy="839" r="1" fill="#8dcae0" opacity="0.44"/><circle cx="728" cy="459" r="0.5" fill="#8dcae0" opacity="0.54"/><circle cx="121" cy="737" r="0.7" fill="#8dcae0" opacity="0.47"/><circle cx="59" cy="751" r="0.35" fill="#8dcae0" opacity="0.44"/><circle cx="526" cy="359" r="0.7" fill="#8dcae0" opacity="0.36"/><circle cx="785" cy="60" r="1" fill="#e9edf4" opacity="0.39"/><circle cx="932" cy="594" r="0.35" fill="#e9edf4" opacity="0.20"/><circle cx="791" cy="55" r="0.35" fill="#c0e1ee" opacity="0.57"/><circle cx="34" cy="273" r="0.35" fill="#e9edf4" opacity="0.53"/><circle cx="405" cy="815" r="0.7" fill="#e9edf4" opacity="0.25"/><circle cx="915" cy="984" r="0.7" fill="#c0e1ee" opacity="0.23"/><circle cx="913" cy="47" r="1" fill="#e9edf4" opacity="0.20"/><circle cx="530" cy="1019" r="0.35" fill="#8dcae0" opacity="0.16"/><circle cx="740" cy="927" r="1" fill="#c0e1ee" opacity="0.57"/><circle cx="133" cy="231" r="0.35" fill="#8dcae0" opacity="0.49"/><circle cx="975" cy="374" r="0.35" fill="#8dcae0" opacity="0.29"/><circle cx="181" cy="204" r="0.35" fill="#c0e1ee" opacity="0.38"/><circle cx="979" cy="621" r="0.5" fill="#c0e1ee" opacity="0.39"/><circle cx="171" cy="267" r="1" fill="#e9edf4" opacity="0.62"/><circle cx="836" cy="368" r="0.5" fill="#e9edf4" opacity="0.41"/><circle cx="252" cy="750" r="0.35" fill="#c0e1ee" opacity="0.25"/><circle cx="327" cy="420" r="0.7" fill="#e9edf4" opacity="0.59"/><circle cx="531" cy="921" r="1" fill="#c0e1ee" opacity="0.59"/><circle cx="850" cy="604" r="0.7" fill="#8dcae0" opacity="0.61"/><circle cx="685" cy="290" r="0.5" fill="#e9edf4" opacity="0.20"/><circle cx="586" cy="926" r="0.7" fill="#c0e1ee" opacity="0.64"/><circle cx="210" cy="184" r="0.7" fill="#e9edf4" opacity="0.36"/><circle cx="94" cy="530" r="1" fill="#c0e1ee" opacity="0.64"/><circle cx="1012" cy="440" r="0.35" fill="#8dcae0" opacity="0.28"/><circle cx="146" cy="467" r="0.5" fill="#e9edf4" opacity="0.17"/><circle cx="156" cy="771" r="0.7" fill="#c0e1ee" opacity="0.41"/><circle cx="979" cy="610" r="1" fill="#c0e1ee" opacity="0.51"/><circle cx="148" cy="50" r="1" fill="#e9edf4" opacity="0.22"/><circle cx="365" cy="614" r="0.35" fill="#e9edf4" opacity="0.26"/><circle cx="378" cy="309" r="0.35" fill="#8dcae0" opacity="0.36"/><circle cx="195" cy="926" r="1" fill="#c0e1ee" opacity="0.47"/><circle cx="3" cy="31" r="0.5" fill="#e9edf4" opacity="0.29"/><circle cx="793" cy="607" r="0.7" fill="#8dcae0" opacity="0.52"/><circle cx="892" cy="868" r="0.7" fill="#c0e1ee" opacity="0.43"/><circle cx="453" cy="369" r="1" fill="#e9edf4" opacity="0.32"/><circle cx="357" cy="659" r="0.7" fill="#8dcae0" opacity="0.47"/><circle cx="147" cy="129" r="0.5" fill="#c0e1ee" opacity="0.27"/><circle cx="489" cy="758" r="0.7" fill="#e9edf4" opacity="0.29"/><circle cx="238" cy="436" r="1" fill="#8dcae0" opacity="0.24"/><circle cx="380" cy="839" r="0.7" fill="#c0e1ee" opacity="0.18"/><circle cx="790" cy="630" r="0.7" fill="#c0e1ee" opacity="0.53"/><circle cx="660" cy="959" r="0.7" fill="#e9edf4" opacity="0.34"/><circle cx="112" cy="33" r="0.5" fill="#c0e1ee" opacity="0.37"/><circle cx="295" cy="150" r="0.35" fill="#e9edf4" opacity="0.40"/><circle cx="435" cy="44" r="1" fill="#c0e1ee" opacity="0.63"/><circle cx="421" cy="217" r="0.5" fill="#8dcae0" opacity="0.43"/><circle cx="584" cy="887" r="1" fill="#8dcae0" opacity="0.22"/><circle cx="401" cy="582" r="1" fill="#8dcae0" opacity="0.58"/><circle cx="263" cy="39" r="0.5" fill="#e9edf4" opacity="0.34"/><circle cx="147" cy="617" r="0.7" fill="#c0e1ee" opacity="0.17"/><circle cx="706" cy="691" r="1" fill="#e9edf4" opacity="0.55"/><circle cx="803" cy="416" r="0.35" fill="#c0e1ee" opacity="0.59"/><circle cx="509" cy="344" r="0.7" fill="#c0e1ee" opacity="0.53"/><circle cx="403" cy="403" r="0.5" fill="#c0e1ee" opacity="0.40"/><circle cx="384" cy="873" r="0.35" fill="#8dcae0" opacity="0.20"/><circle cx="24" cy="586" r="0.7" fill="#e9edf4" opacity="0.48"/><circle cx="514" cy="775" r="1" fill="#8dcae0" opacity="0.32"/><circle cx="777" cy="167" r="1" fill="#e9edf4" opacity="0.64"/><circle cx="256" cy="812" r="1" fill="#8dcae0" opacity="0.57"/><circle cx="73" cy="265" r="0.7" fill="#8dcae0" opacity="0.35"/><circle cx="397" cy="158" r="1" fill="#e9edf4" opacity="0.45"/><circle cx="681" cy="352" r="0.5" fill="#8dcae0" opacity="0.43"/><circle cx="56" cy="574" r="0.7" fill="#8dcae0" opacity="0.17"/><circle cx="49" cy="336" r="0.7" fill="#e9edf4" opacity="0.25"/><circle cx="995" cy="649" r="0.5" fill="#e9edf4" opacity="0.30"/><circle cx="596" cy="1015" r="1" fill="#c0e1ee" opacity="0.27"/><circle cx="667" cy="560" r="0.5" fill="#c0e1ee" opacity="0.33"/><circle cx="443" cy="408" r="1" fill="#8dcae0" opacity="0.56"/><circle cx="535" cy="922" r="0.35" fill="#e9edf4" opacity="0.34"/><circle cx="921" cy="313" r="0.5" fill="#e9edf4" opacity="0.19"/><circle cx="681" cy="866" r="0.5" fill="#e9edf4" opacity="0.46"/><circle cx="709" cy="541" r="0.5" fill="#c0e1ee" opacity="0.52"/><circle cx="990" cy="477" r="0.5" fill="#c0e1ee" opacity="0.45"/><circle cx="376" cy="663" r="0.7" fill="#8dcae0" opacity="0.55"/><circle cx="198" cy="540" r="0.7" fill="#e9edf4" opacity="0.61"/><circle cx="389" cy="1016" r="0.5" fill="#c0e1ee" opacity="0.20"/><circle cx="515" cy="125" r="1" fill="#8dcae0" opacity="0.43"/><circle cx="213" cy="751" r="0.35" fill="#c0e1ee" opacity="0.34"/><circle cx="29" cy="863" r="0.5" fill="#8dcae0" opacity="0.47"/><circle cx="32" cy="756" r="0.5" fill="#c0e1ee" opacity="0.39"/><circle cx="85" cy="416" r="0.5" fill="#e9edf4" opacity="0.36"/><circle cx="6" cy="817" r="0.5" fill="#c0e1ee" opacity="0.53"/><circle cx="298" cy="701" r="0.5" fill="#c0e1ee" opacity="0.45"/><circle cx="388" cy="242" r="0.35" fill="#8dcae0" opacity="0.42"/><circle cx="507" cy="228" r="0.7" fill="#e9edf4" opacity="0.63"/><circle cx="459" cy="351" r="0.5" fill="#e9edf4" opacity="0.21"/><circle cx="545" cy="410" r="0.5" fill="#c0e1ee" opacity="0.40"/><circle cx="859" cy="833" r="0.5" fill="#e9edf4" opacity="0.35"/><circle cx="860" cy="491" r="1" fill="#c0e1ee" opacity="0.27"/><circle cx="497" cy="451" r="0.35" fill="#e9edf4" opacity="0.28"/><circle cx="82" cy="862" r="1" fill="#e9edf4" opacity="0.25"/><circle cx="171" cy="272" r="0.5" fill="#8dcae0" opacity="0.27"/><circle cx="77" cy="209" r="0.7" fill="#c0e1ee" opacity="0.48"/><circle cx="326" cy="31" r="0.35" fill="#8dcae0" opacity="0.43"/><circle cx="138" cy="487" r="1" fill="#e9edf4" opacity="0.37"/><circle cx="122" cy="31" r="0.35" fill="#c0e1ee" opacity="0.21"/><circle cx="486" cy="590" r="0.35" fill="#8dcae0" opacity="0.35"/><circle cx="488" cy="696" r="0.7" fill="#8dcae0" opacity="0.57"/><circle cx="361" cy="417" r="1" fill="#8dcae0" opacity="0.37"/><circle cx="307" cy="31" r="0.35" fill="#8dcae0" opacity="0.30"/><circle cx="764" cy="615" r="0.5" fill="#c0e1ee" opacity="0.52"/><circle cx="685" cy="210" r="1" fill="#c0e1ee" opacity="0.59"/><circle cx="172" cy="132" r="0.5" fill="#c0e1ee" opacity="0.61"/><circle cx="881" cy="693" r="0.35" fill="#8dcae0" opacity="0.25"/><circle cx="512" cy="769" r="1" fill="#e9edf4" opacity="0.38"/><circle cx="381" cy="142" r="0.35" fill="#8dcae0" opacity="0.32"/><circle cx="124" cy="674" r="0.5" fill="#c0e1ee" opacity="0.58"/><circle cx="721" cy="619" r="0.5" fill="#e9edf4" opacity="0.35"/><circle cx="667" cy="568" r="0.5" fill="#c0e1ee" opacity="0.20"/><circle cx="270" cy="695" r="0.35" fill="#e9edf4" opacity="0.34"/><circle cx="281" cy="473" r="0.35" fill="#e9edf4" opacity="0.48"/><circle cx="405" cy="366" r="0.35" fill="#c0e1ee" opacity="0.16"/><circle cx="860" cy="114" r="0.5" fill="#e9edf4" opacity="0.63"/><circle cx="510" cy="278" r="1" fill="#e9edf4" opacity="0.36"/><circle cx="864" cy="599" r="0.5" fill="#c0e1ee" opacity="0.54"/><circle cx="420" cy="58" r="0.7" fill="#c0e1ee" opacity="0.22"/><circle cx="462" cy="42" r="0.7" fill="#c0e1ee" opacity="0.46"/><circle cx="686" cy="320" r="1" fill="#c0e1ee" opacity="0.17"/><circle cx="734" cy="939" r="0.7" fill="#e9edf4" opacity="0.38"/><circle cx="557" cy="411" r="0.7" fill="#c0e1ee" opacity="0.16"/><circle cx="908" cy="287" r="0.7" fill="#e9edf4" opacity="0.53"/><circle cx="401" cy="172" r="0.7" fill="#c0e1ee" opacity="0.46"/><circle cx="814" cy="749" r="0.35" fill="#e9edf4" opacity="0.40"/><circle cx="1019" cy="175" r="0.5" fill="#8dcae0" opacity="0.21"/><circle cx="858" cy="591" r="1" fill="#c0e1ee" opacity="0.63"/><circle cx="954" cy="162" r="1" fill="#e9edf4" opacity="0.41"/><circle cx="885" cy="170" r="0.5" fill="#c0e1ee" opacity="0.38"/><circle cx="248" cy="874" r="0.5" fill="#c0e1ee" opacity="0.21"/><circle cx="870" cy="911" r="0.5" fill="#c0e1ee" opacity="0.53"/><circle cx="537" cy="534" r="1" fill="#8dcae0" opacity="0.17"/><circle cx="795" cy="874" r="0.35" fill="#8dcae0" opacity="0.22"/><circle cx="262" cy="808" r="0.5" fill="#e9edf4" opacity="0.33"/><circle cx="349" cy="215" r="0.5" fill="#c0e1ee" opacity="0.64"/><circle cx="893" cy="257" r="0.7" fill="#e9edf4" opacity="0.36"/><circle cx="173" cy="767" r="1" fill="#c0e1ee" opacity="0.58"/><circle cx="331" cy="457" r="0.35" fill="#c0e1ee" opacity="0.27"/><circle cx="406" cy="416" r="0.5" fill="#8dcae0" opacity="0.34"/><circle cx="415" cy="176" r="0.5" fill="#e9edf4" opacity="0.36"/><circle cx="326" cy="113" r="1" fill="#c0e1ee" opacity="0.20"/><circle cx="927" cy="776" r="0.35" fill="#c0e1ee" opacity="0.23"/><circle cx="609" cy="751" r="0.35" fill="#8dcae0" opacity="0.50"/><circle cx="413" cy="243" r="1" fill="#e9edf4" opacity="0.46"/><circle cx="154" cy="524" r="0.7" fill="#e9edf4" opacity="0.25"/><circle cx="937" cy="151" r="0.35" fill="#c0e1ee" opacity="0.31"/><circle cx="1015" cy="152" r="0.35" fill="#e9edf4" opacity="0.48"/><circle cx="376" cy="769" r="0.7" fill="#e9edf4" opacity="0.54"/><circle cx="242" cy="685" r="0.7" fill="#8dcae0" opacity="0.29"/><circle cx="438" cy="608" r="0.7" fill="#e9edf4" opacity="0.43"/><circle cx="252" cy="602" r="0.7" fill="#c0e1ee" opacity="0.44"/><circle cx="1" cy="523" r="1" fill="#e9edf4" opacity="0.39"/><circle cx="696" cy="660" r="0.5" fill="#c0e1ee" opacity="0.59"/><circle cx="294" cy="923" r="1" fill="#8dcae0" opacity="0.21"/><circle cx="824" cy="598" r="0.7" fill="#8dcae0" opacity="0.16"/><circle cx="402" cy="472" r="0.35" fill="#c0e1ee" opacity="0.44"/><circle cx="396" cy="214" r="0.5" fill="#e9edf4" opacity="0.42"/><circle cx="621" cy="359" r="0.7" fill="#c0e1ee" opacity="0.34"/><circle cx="121" cy="294" r="1" fill="#e9edf4" opacity="0.52"/><circle cx="402" cy="895" r="0.35" fill="#8dcae0" opacity="0.30"/><circle cx="969" cy="185" r="1" fill="#e9edf4" opacity="0.29"/><circle cx="816" cy="873" r="0.7" fill="#c0e1ee" opacity="0.44"/><circle cx="410" cy="763" r="0.5" fill="#c0e1ee" opacity="0.48"/><circle cx="172" cy="929" r="0.35" fill="#c0e1ee" opacity="0.47"/><circle cx="129" cy="49" r="0.35" fill="#e9edf4" opacity="0.31"/><circle cx="624" cy="799" r="0.35" fill="#c0e1ee" opacity="0.16"/><circle cx="887" cy="181" r="1" fill="#8dcae0" opacity="0.63"/><circle cx="427" cy="858" r="0.35" fill="#c0e1ee" opacity="0.35"/><circle cx="705" cy="20" r="1" fill="#c0e1ee" opacity="0.52"/><circle cx="905" cy="736" r="0.7" fill="#8dcae0" opacity="0.28"/><circle cx="538" cy="424" r="0.7" fill="#c0e1ee" opacity="0.54"/><circle cx="115" cy="954" r="0.35" fill="#8dcae0" opacity="0.62"/><circle cx="476" cy="31" r="0.7" fill="#8dcae0" opacity="0.56"/><circle cx="371" cy="838" r="0.5" fill="#e9edf4" opacity="0.63"/><circle cx="241" cy="892" r="1" fill="#e9edf4" opacity="0.45"/><circle cx="658" cy="862" r="0.5" fill="#e9edf4" opacity="0.65"/><circle cx="602" cy="383" r="0.35" fill="#8dcae0" opacity="0.41"/><circle cx="652" cy="970" r="0.5" fill="#e9edf4" opacity="0.61"/><circle cx="848" cy="372" r="1" fill="#e9edf4" opacity="0.29"/><circle cx="156" cy="690" r="0.7" fill="#e9edf4" opacity="0.30"/><circle cx="397" cy="806" r="0.5" fill="#8dcae0" opacity="0.58"/><circle cx="357" cy="845" r="0.7" fill="#e9edf4" opacity="0.53"/><circle cx="505" cy="380" r="0.7" fill="#e9edf4" opacity="0.51"/><circle cx="872" cy="312" r="0.35" fill="#c0e1ee" opacity="0.34"/><circle cx="388" cy="569" r="1" fill="#8dcae0" opacity="0.31"/><circle cx="758" cy="209" r="0.7" fill="#e9edf4" opacity="0.46"/><circle cx="936" cy="209" r="0.5" fill="#8dcae0" opacity="0.21"/><circle cx="94" cy="553" r="1" fill="#8dcae0" opacity="0.17"/><circle cx="555" cy="0" r="0.7" fill="#e9edf4" opacity="0.36"/><circle cx="677" cy="403" r="0.5" fill="#8dcae0" opacity="0.38"/><circle cx="438" cy="319" r="0.35" fill="#8dcae0" opacity="0.21"/><circle cx="1022" cy="614" r="0.5" fill="#8dcae0" opacity="0.60"/><circle cx="915" cy="212" r="0.35" fill="#8dcae0" opacity="0.16"/><circle cx="789" cy="845" r="0.5" fill="#c0e1ee" opacity="0.28"/><circle cx="207" cy="820" r="0.7" fill="#e9edf4" opacity="0.39"/><circle cx="157" cy="118" r="0.35" fill="#e9edf4" opacity="0.48"/><circle cx="499" cy="558" r="0.7" fill="#8dcae0" opacity="0.53"/><circle cx="882" cy="189" r="0.5" fill="#e9edf4" opacity="0.25"/><circle cx="920" cy="386" r="0.5" fill="#e9edf4" opacity="0.43"/><circle cx="173" cy="416" r="0.7" fill="#8dcae0" opacity="0.16"/><circle cx="844" cy="343" r="0.7" fill="#e9edf4" opacity="0.46"/><circle cx="925" cy="470" r="0.7" fill="#8dcae0" opacity="0.23"/><circle cx="242" cy="261" r="0.35" fill="#c0e1ee" opacity="0.20"/><circle cx="448" cy="99" r="1" fill="#8dcae0" opacity="0.61"/><circle cx="195" cy="113" r="1" fill="#c0e1ee" opacity="0.15"/></svg>